<svg width="640" height="150" viewBox="0 0 640 150" fill="none" xmlns="http://www.w3.org/2000/svg">
<rect width="640" height="150" fill="#008741"/>
<mask id="mask0_6540_13038" style="mask-type:alpha" maskUnits="userSpaceOnUse" x="-84" y="130" width="807" height="36">
<path d="M682.65 142.331C702.696 142.331 702.696 130 723 130V166H-84V130C-63.9535 130 -63.9535 142.331 -43.65 142.331C-23.6035 142.331 -23.6035 130 -3.3 130C16.7465 130 16.7465 142.331 37.05 142.331C57.0965 142.331 57.0965 130 77.4 130C97.4465 130 97.4465 142.331 117.75 142.331C137.796 142.331 137.796 130 158.1 130C178.146 130 178.146 142.331 198.45 142.331C218.496 142.331 218.753 130 238.8 130C258.846 130 258.846 142.331 279.15 142.331C299.197 142.331 299.197 130 319.5 130C339.547 130 339.547 142.331 359.85 142.331C379.896 142.331 380.154 130 400.2 130C420.246 130 420.247 142.331 440.55 142.331C460.596 142.331 460.596 130 480.9 130C500.946 130 500.946 142.331 521.25 142.331C541.297 142.331 541.296 130 561.6 130C581.646 130 581.646 142.331 601.95 142.331C621.996 142.331 621.997 130 642.3 130C662.346 130 662.346 142.331 682.65 142.331Z"
fill="white"/>
</mask>
<g mask="url(#mask0_6540_13038)">
<rect y="128" width="640" height="22" fill="white"/>
</g>
</svg>
