<svg width="200" height="70" viewBox="0 0 200 70" fill="none" xmlns="http://www.w3.org/2000/svg">
  <path
    d="M195.614 4.34635V44.5954C195.614 52.275 189.276 58.5229 181.483 58.5229L114.154 58.5852C108.976 58.5852 104.08 60.4641 100.26 63.8993C96.4403 60.4641 91.5506 58.5852 86.3667 58.5852H18.3588C10.6282 58.5852 4.34069 52.3373 4.34069 44.6576V4.4086L195.614 4.34635ZM102.547 67.725C105.648 64.635 109.768 62.9372 114.154 62.9372L181.483 62.8749C191.669 62.8749 199.96 54.6746 199.96 44.601V0L0 0.0622528V44.6576C0 54.7368 8.23996 62.9315 18.3645 62.9315H86.3724C90.7583 62.9315 94.8783 64.635 97.9796 67.7193L100.266 70L102.552 67.7193L102.547 67.725Z"
    fill="white"/>
  <path
    d="M173.011 39.055C171.03 39.055 169.728 37.8439 169.259 36.2141L165.625 38.2514C166.836 40.617 169.587 42.0941 173.073 42.0941C176.293 42.0941 179.072 40.3227 179.072 37.3346C179.072 34.6125 176.944 33.5485 174.607 32.8128C172.388 32.1054 170.436 31.9865 170.436 30.8603C170.436 30.0001 171.324 29.5304 172.388 29.5304C174.012 29.5304 175.139 30.5661 175.489 31.896L179.066 29.8869C177.912 27.9062 175.195 26.4857 172.235 26.4857C169.044 26.4857 166.35 28.2571 166.35 31.0697C166.35 33.8824 169.157 35.0313 171.403 35.6198C173.322 36.1518 174.98 36.4178 174.98 37.6006C174.98 38.5457 174.154 39.0494 172.999 39.0494M153.531 41.7432H157.702V33.2259C157.702 31.3074 158.234 30.0624 159.536 30.0624C160.572 30.0624 160.928 30.9792 160.928 31.9526C160.928 32.926 160.753 33.9616 160.69 34.4087L164.442 32.2525C164.442 32.2525 164.59 31.4829 164.59 30.5095C164.59 28.3193 163.435 26.548 161.336 26.548C159.445 26.548 158.319 27.8496 157.583 29.2984H157.493L157.702 26.8422H153.531V41.7432ZM140.826 34.2955C140.826 31.6357 141.743 29.6832 143.814 29.6832C145.886 29.6832 146.768 31.6357 146.768 34.2955C146.768 36.9554 145.852 38.9079 143.814 38.9079C141.777 38.9079 140.826 36.9554 140.826 34.2955ZM143.809 42.0997C147.861 42.0997 150.99 39.1456 150.99 34.2955C150.99 29.4455 147.855 26.4914 143.809 26.4914C139.762 26.4914 136.593 29.4455 136.593 34.2955C136.593 39.1456 139.728 42.0997 143.809 42.0997ZM132.83 23.1184C133.837 23.1184 134.278 24.0352 134.335 24.9237L137.94 22.7053C137.023 21.3753 135.28 19.9832 132.62 19.9832C129.457 19.9832 127.153 21.7545 127.153 25.2463V26.8422H124.878V30.0341H127.153V41.7432H131.29V30.0341H134.544V26.8422H131.29V25.218C131.29 23.9164 131.794 23.1184 132.83 23.1184ZM112.105 31.6357C112.105 30.2152 113.231 29.2984 114.646 29.2984C116.061 29.2984 117.187 30.2152 117.187 31.6357C117.187 33.0562 116.061 33.973 114.646 33.973C113.231 33.973 112.105 33.0562 112.105 31.6357ZM110.424 43.5768C110.424 42.1846 113.91 42.0375 115.716 42.0375C117.521 42.0375 118.936 42.3601 118.936 43.3391C118.936 44.5785 117.34 45.1105 114.59 45.1105C112.167 45.1105 110.419 44.6351 110.419 43.5712M108.325 31.4263C108.325 33.7296 109.683 35.0313 111.313 35.6821V35.7726C109.57 36.1292 107.855 37.046 107.855 38.7268C107.855 40.0001 108.862 40.7358 109.983 41.0924V41.1829C108.478 41.4489 106.848 42.394 106.848 43.9899C106.848 46.6215 110.572 47.776 114.652 47.776C119.055 47.776 122.96 46.3838 122.96 42.8977C122.96 40.0001 120.832 38.6985 117.606 38.6985C115.982 38.6985 114.59 38.9362 113.322 38.9362C112.054 38.9362 111.551 38.6702 111.551 38.0477C111.551 37.2497 112.943 36.746 114.567 36.746C118.087 36.746 120.922 34.8841 120.922 31.93C120.922 30.2152 119.915 29.1512 119.089 28.5004V28.3816C119.355 28.4721 119.887 28.557 120.272 28.557C121.958 28.557 122.847 27.6402 122.903 25.6877L119.089 23.4976C119.145 23.8541 119.236 24.3861 119.236 24.9181C119.236 26.0386 118.761 26.7517 117.521 26.7517C116.514 26.7517 115.75 26.4857 114.42 26.4857C110.9 26.4857 108.33 28.4948 108.33 31.4206M104.584 32.1959C104.584 28.5004 102.779 26.4914 99.915 26.4914C97.4589 26.4914 96.1912 27.9401 95.4498 29.2984H95.3593L95.5687 26.8422H91.3978V41.7432H95.5687V32.9034C95.5687 31.1886 96.576 30.0058 98.138 30.0058C99.7 30.0058 100.385 31.0414 100.385 33.0222V41.7432H104.584V32.1959ZM85.099 20.4019C83.7407 20.4019 82.6768 21.3753 82.6768 22.7392C82.6768 24.1031 83.7407 25.0765 85.099 25.0765C86.4572 25.0765 87.5211 24.1031 87.5211 22.7392C87.5211 21.3753 86.4572 20.4019 85.099 20.4019ZM82.9994 41.7432H87.1986V26.8422H82.9994V41.7432ZM73.5879 39.055C71.6072 39.055 70.3055 37.8439 69.8358 36.2141L66.1969 38.2514C67.408 40.617 70.1584 42.0941 73.6445 42.0941C76.8647 42.0941 79.6434 40.3227 79.6434 37.3346C79.6434 34.6125 77.5155 33.5485 75.1782 32.8128C72.9597 32.1054 71.0073 31.9865 71.0073 30.8603C71.0073 30.0001 71.8958 29.5304 72.9597 29.5304C74.584 29.5304 75.7102 30.5661 76.061 31.896L79.6377 29.8869C78.4832 27.9062 75.7668 26.4857 72.8069 26.4857C69.6151 26.4857 66.9213 28.2571 66.9213 31.0697C66.9213 33.8824 69.7283 35.0313 71.975 35.6198C73.8992 36.1518 75.5517 36.4178 75.5517 37.6006C75.5517 38.5457 74.7254 39.0494 73.5709 39.0494M48.2852 29.5078C49.9094 29.5078 51.0639 30.8377 51.0639 32.643H45.1782C45.5008 30.6057 46.7458 29.5078 48.2795 29.5078M54.7311 35.4161C54.7311 35.4161 54.9405 34.5898 54.9405 33.3787C54.9405 29.3267 52.2806 26.4914 48.2908 26.4914C44.301 26.4914 41.1657 29.4455 41.1657 34.2955C41.1657 39.1456 44.2105 42.0997 48.3814 42.0997C51.4883 42.0997 53.7351 40.4416 54.7651 38.5513L51.245 36.5706C51.0073 37.9911 49.9433 39.0267 48.3757 39.0267C46.6326 39.0267 45.2744 37.8439 45.0933 35.4218H54.7311V35.4161ZM33.6841 41.7432H38.0305V21.2848H33.6841V29.3833H25.5234V21.2848H21.1771V41.7432H25.5234V33.2599H33.6841V41.7432Z"
    fill="white"/>
  <path
    d="M62.0825 20.4186H57.9172V37.5833C57.9172 39.1113 58.2455 40.2205 58.902 40.9166C59.5584 41.6127 60.5997 41.958 62.0259 41.958C62.5126 41.958 63.0106 41.9014 63.5199 41.7938C64.0293 41.6863 64.4368 41.5335 64.7537 41.3411L65.1046 38.5511C64.7707 38.6699 64.482 38.7491 64.2387 38.8001C63.9953 38.851 63.7067 38.8736 63.3728 38.8736C62.8239 38.8736 62.5975 38.7378 62.3881 38.4605C62.1844 38.1889 62.0825 37.6965 62.0825 36.9947V20.413V20.4186Z"
    fill="white"/>
</svg>

