<svg width="151" height="70" viewBox="0 0 151 70" fill="none" xmlns="http://www.w3.org/2000/svg">
  <path
    d="M146.559 4.35201V44.6293C146.559 52.3203 140.215 58.5739 132.411 58.5739H89.3605C84.1766 58.5739 79.2756 60.4528 75.4499 63.8936C71.6242 60.4528 66.7289 58.5739 61.5393 58.5739H18.3871C10.6508 58.5739 4.35201 52.3203 4.35201 44.6293V4.35201H146.559ZM77.7419 67.7193C80.8489 64.6293 84.9745 62.9259 89.3605 62.9259H132.411C142.609 62.9259 150.905 54.7199 150.905 44.6293V0H0V44.6293C0 54.7199 8.24562 62.9259 18.3814 62.9259H61.545C65.9366 62.9259 70.0623 64.6293 73.1636 67.7193L75.4499 70L77.7363 67.7193H77.7419Z"
    fill="white"
  />
  <path
    d="M130 22.6881C130 24.052 128.936 25.0254 127.572 25.0254C126.208 25.0254 125.144 24.0463 125.144 22.6881C125.144 21.3298 126.208 20.3508 127.572 20.3508C128.936 20.3508 130 21.3298 130 22.6881ZM125.473 41.7203H129.677V26.8024H125.473V41.7203ZM117.957 32.722L123.435 41.7203H118.879L115.207 35.7441L113.226 38.2625V41.726H109.055V20.2942H113.226V30.181C113.226 32.0146 113.016 33.8539 113.016 33.8539H113.107C113.107 33.8539 114.086 32.224 114.912 31.0695L118.11 26.8081H122.994L117.963 32.7277L117.957 32.722ZM104.816 32.1618C104.816 28.4606 103.011 26.4515 100.141 26.4515C97.6853 26.4515 96.412 27.9003 95.6706 29.2642H95.5801L95.7895 26.8081H91.6186V41.726H95.7895V32.8748C95.7895 31.1601 96.7968 29.9716 98.3644 29.9716C99.9321 29.9716 100.611 31.0073 100.611 32.988V41.7203H104.816V32.1618ZM87.6174 22.6881C87.6174 24.052 86.5535 25.0254 85.1896 25.0254C83.8257 25.0254 82.7617 24.0463 82.7617 22.6881C82.7617 21.3298 83.8257 20.3508 85.1896 20.3508C86.5535 20.3508 87.6174 21.3298 87.6174 22.6881ZM83.09 41.7203H87.2948V26.8024H83.09V41.7203ZM75.8687 37.5777C75.8687 36.3949 74.2105 36.1289 72.2864 35.597C70.0339 35.0027 67.2269 33.8822 67.2269 31.0412C67.2269 28.2002 69.9208 26.4515 73.1183 26.4515C76.0781 26.4515 78.8002 27.872 79.9547 29.8584L76.3724 31.8731C76.0158 30.5432 74.8953 29.5075 73.2654 29.5075C72.2015 29.5075 71.313 29.9829 71.313 30.8375C71.313 31.9637 73.2654 32.0825 75.4839 32.7899C77.8212 33.5313 79.9547 34.5953 79.9547 37.3174C79.9547 40.3055 77.1703 42.0825 73.9445 42.0825C70.4527 42.0825 67.6966 40.5998 66.4856 38.2342L70.1245 36.1912C70.5999 37.8211 71.9015 39.0322 73.8823 39.0322C75.0368 39.0322 75.863 38.5285 75.863 37.5834M62.3769 20.4413H58.172V37.606C58.172 39.1454 58.5003 40.2659 59.1624 40.9676C59.8246 41.6694 60.8715 42.0203 62.3146 42.0203C62.807 42.0203 63.3107 41.9637 63.8257 41.8562C64.3407 41.7486 64.7538 41.5958 65.0707 41.3978L65.4273 38.5851C65.0934 38.7039 64.7991 38.7888 64.5557 38.8341C64.3067 38.885 64.0181 38.9077 63.6842 38.9077C63.1296 38.9077 62.8976 38.7718 62.6938 38.4945C62.4844 38.2172 62.3826 37.7249 62.3826 37.0118V20.4357L62.3769 20.4413ZM48.4041 29.4679C46.8647 29.4679 45.6197 30.5658 45.2971 32.6032H51.1884C51.1884 30.7979 50.0339 29.4679 48.4041 29.4679ZM54.8613 35.3876H45.2122C45.3877 37.8154 46.7516 38.9982 48.5003 38.9982C50.0679 38.9982 51.1319 37.9626 51.3695 36.5421L54.8896 38.5228C53.854 40.4187 51.6016 42.0769 48.4946 42.0769C44.3237 42.0769 41.2733 39.1736 41.2733 34.2614C41.2733 29.3491 44.3803 26.4459 48.4041 26.4459C52.4278 26.4459 55.0651 29.2868 55.0651 33.3446C55.0651 34.5557 54.8557 35.3876 54.8557 35.3876M33.8257 41.7203H38.1777V21.2393H33.8257V29.3491H25.6536V21.2393H21.3016V41.7203H25.6536V33.2257H33.8257V41.7203Z"
    fill="white"
  />
</svg>

