<svg width="32" height="32" viewBox="0 0 32 32" fill="none" xmlns="http://www.w3.org/2000/svg">
<g id="icon/info">
<path id="Subtract" fill-rule="evenodd" clip-rule="evenodd" d="M29.4401 16C29.4401 23.4227 23.4228 29.44 16.0001 29.44C8.57732 29.44 2.56006 23.4227 2.56006 16C2.56006 8.57728 8.57732 2.56 16.0001 2.56C23.4228 2.56 29.4401 8.57728 29.4401 16ZM14.7201 15.36C14.7201 15.0065 15.0066 14.72 15.3601 14.72H16.6401C16.9935 14.72 17.2801 15.0065 17.2801 15.36V21.76C17.2801 22.1135 16.9935 22.4 16.6401 22.4H15.3601C15.0066 22.4 14.7201 22.1135 14.7201 21.76V15.36ZM15.3601 9.6C15.0066 9.6 14.7201 9.88654 14.7201 10.24V11.52C14.7201 11.8735 15.0066 12.16 15.3601 12.16H16.6401C16.9935 12.16 17.2801 11.8735 17.2801 11.52V10.24C17.2801 9.88654 16.9935 9.6 16.6401 9.6H15.3601Z" fill="#003F71"/>
</g>
</svg>
