<svg xmlns="http://www.w3.org/2000/svg" version="1.1" xmlns:xlink="http://www.w3.org/1999/xlink" xmlns:svgjs="http://svgjs.com/svgjs" width="512" height="512"><svg id="SvgjsSvg1000" data-name="Layer 1" xmlns="http://www.w3.org/2000/svg" version="1.1" viewBox="0 0 512 512">
  <path d="M487.4,239c-9.2-106.6-97.4-188.7-204.1-189.7H117.2c-6.2,0-7.2,2.1-7.2,7.2v129.2c0,18.5,11.3,29.7,29.7,29.7h48.2c7.2,0,8.2-2.1,7.2-8.2v-67.7c0-6.2,2.1-7.2,7.2-7.2h74.9c68.7-1,125.1,54.3,126.1,123v9.2c-3.1,61.5-57.4,113.8-118.9,114.8-27.7,1-55.4,0-83.1,0s-6.2-2.1-6.2-7.2v-48.2c0-14.4-11.3-26.7-24.6-27.7h-60.5v-55.4c0-15.4-12.3-27.7-27.7-28.7H30c-4.1,0-6.2,1-6.2,6.2v49.2c0,17.4,12.3,28.7,29.7,28.7h55.4v53.3c0,18.5,11.3,29.7,29.7,29.7h49.2c5.1,0,7.2,1,6.2,7.2v46.1c0,18.5,11.3,29.7,29.7,29.7h22.6c22.6,0,46.1,1,68.7-3.1,105.6-16.4,181.5-114.8,172.3-220.5Z" style="fill: #133e6a; stroke-width: 0px;"></path>
  <path d="M110,298.5c20.5,0,41-1,60.5,0,13.3,0,23.6,12.3,24.6,27.7v48.2c0,5.1,0,7.2,6.2,7.2h83.1c61.5-1,115.9-53.3,118.9-114.8,4.1-68.7-48.2-128.2-116.9-132.3h-84.1c-6.2,0-7.2,1-7.2,7.2v67.7c0,6.2-1,8.2-7.2,8.2h-48.2c-18.5,0-29.7-11.3-29.7-29.7V58.6c0-7.2,1-9.2,7.2-9.2,55.4,0,110.7-1,166.1,0,106.6,1,194.8,83.1,204.1,188.7,9.2,105.6-66.7,204.1-172.3,221.5-22.6,4.1-46.1,2.1-68.7,3.1h-22.6c-18.5,0-29.7-11.3-29.7-29.7v-46.1c0-5.1-1-7.2-6.2-6.2h-49.2c-18.5,0-29.7-11.3-29.7-29.7,1-17.4,1-34.9,1-52.3h0Z" style="fill: #133e6a; stroke-width: 0px;"></path>
  <path d="M110,298.5h-56.4c-18.5,0-29.7-11.3-29.7-28.7v-49.2c0-4.1,1-6.2,6.2-6.2h51.3c15.4-1,27.7,11.3,28.7,26.7v1c1,19.5,0,37.9,0,56.4Z" style="fill: #133e6a; stroke-width: 0px;"></path>
</svg><style>@media (prefers-color-scheme: light) { :root { filter: none; } }
</style></svg>